# xmcd
#
# Track frame offsets: 
#        150
#        12518
#        25850
#        39948
#        68595
#        82473
#        95353
#        107048
#        117948
#        131143
#        145860
#        158655
#        174025
#        192463
#        211968
#        227633
#        265598
#        278915
#        299945
#        317270
#
# Disc length: 4492 seconds
#
# Revision: 2
# Processed by: cddbd v1.5.2PL0 Copyright (c) Steve Scherf et al.
# Submitted via: ExactAudioCopy v0.95b2
#
DISCID=1b118a14
DTITLE=The Soul Children - Soul Children Best of Two Worlds
DYEAR=1995
DGENRE=R&B
TTITLE0=I'll Understand
TTITLE1=Move Over
TTITLE2=When Tomorrow Comes
TTITLE3=The Sweeter He Is (Parts 1 and 2)
TTITLE4=Tighten Up My Thang
TTITLE5=Give 'em Love
TTITLE6=Doin' Our Thang
TTITLE7=Take Up The Slack
TTITLE8=Super Soul
TTITLE9=My Baby Specializes
TTITLE10=Bring It Here
TTITLE11=Thank's For a Precious Nothing
TTITLE12=Put Your World In My World
TTITLE13=Give Me One Good Reason Why
TTITLE14=Got To Get Away From It All
TTITLE15=The Hangup of Holding On (Part 1 and 2)
TTITLE16=Wrap It Up Tonight
TTITLE17=lLet's Make A Sweet Thing Sweeter
TTITLE18=Finish Me Off
TTITLE19=Don't Break Away
EXTD=
EXTT0=
EXTT1=
EXTT2=
EXTT3=
EXTT4=
EXTT5=
EXTT6=
EXTT7=
EXTT8=
EXTT9=
EXTT10=
EXTT11=
EXTT12=
EXTT13=
EXTT14=
EXTT15=
EXTT16=
EXTT17=
EXTT18=
EXTT19=
PLAYORDER=
